<?xml version="1.0" encoding="utf-8"?>
<!-- Generator: Adobe Illustrator 28.0.0, SVG Export Plug-In . SVG Version: 6.00 Build 0)  -->
<svg version="1.1" id="a" xmlns="http://www.w3.org/2000/svg" xmlns:xlink="http://www.w3.org/1999/xlink" x="0px" y="0px"
	 viewBox="0 0 639.9 639.9" style="enable-background:new 0 0 639.9 639.9;" xml:space="preserve">
<style type="text/css">
	.st0{fill-rule:evenodd;clip-rule:evenodd;fill:#1D1D1D;}
</style>
<g id="b">
	<g id="c">
		<g id="d">
			<path id="e" class="st0" d="M205.7,46.8c-45,2-84,13-115.5,44.4c-31.6,31.5-42.5,70.7-44.5,115.2c-1.3,27.8-8.7,237.8,12.8,292.9
				c14.5,37.2,43,65.7,80.5,80.3c17.5,6.8,37.5,11.4,66.8,12.8c245,11.1,335.8,5,374.1-93c6.8-17.5,11.5-37.4,12.8-66.6
				c11.2-245.6-1.8-298.9-44.5-341.5C514.2,57.5,474.4,34.5,205.7,46.8 M208,543c-26.8-1.2-41.4-5.7-51.1-9.4
				c-24.4-9.5-42.8-27.8-52.2-52.1c-16.3-41.9-10.9-240.6-9.5-272.8c1.4-31.5,7.8-60.3,30-82.5c27.5-27.4,63.1-40.9,305.1-30
				c31.6,1.4,60.4,7.8,82.7,30c27.5,27.4,41.2,63.3,30,304.4c-1.2,26.8-5.7,41.3-9.5,51C508.8,545.3,451.5,554.2,208,543 M433,173.1
				c0,18.2,14.8,32.9,33,32.9c18.2,0,33-14.8,33-32.9s-14.8-32.9-33-32.9C447.8,140.2,433,154.9,433,173.1 M177.9,319.6
				c0,77.8,63.3,140.9,141.3,140.9s141.3-63.1,141.3-140.9s-63.3-140.9-141.3-140.9S177.9,241.8,177.9,319.6 M227.5,319.6
				c0-50.5,41.1-91.5,91.7-91.5s91.7,41,91.7,91.5s-41.1,91.5-91.7,91.5S227.5,370.1,227.5,319.6"/>
		</g>
	</g>
</g>
</svg>
