<?xml version="1.0" encoding="UTF-8"?>
<svg id="a" data-name="Layer 1" xmlns="http://www.w3.org/2000/svg" viewBox="0 0 553.42 594.99">
  <path d="m276.71,0c-10.85,0-19.64,8.79-19.64,19.64v39.28c0,10.85,8.79,19.64,19.64,19.64s19.64-8.79,19.64-19.64V19.64c0-10.85-8.79-19.64-19.64-19.64Z" fill="#fff" stroke-width="0"/>
  <path d="m212.03,58.13l-39.28-39.28c-7.67-7.67-20.11-7.67-27.77,0-7.67,7.67-7.67,20.1,0,27.77l39.28,39.28c7.67,7.67,20.1,7.67,27.77,0,7.67-7.67,7.67-20.1,0-27.77Z" fill="#fff" stroke-width="0"/>
  <path d="m408.43,18.85c-7.67-7.67-20.11-7.67-27.77,0l-39.28,39.28c-7.67,7.67-7.67,20.1,0,27.77s20.1,7.67,27.77,0l39.28-39.28c7.67-7.67,7.67-20.1,0-27.77Z" fill="#fff" stroke-width="0"/>
  <path d="m552.83,532.59c-2.63-10.53-13.29-16.94-23.81-14.31l-57.17,14.25-28.84-115.68c76.03-30.79,103.95-119.48,66.2-190.38l-62.63-117.62c-4.24-7.96-13.34-12-22.09-9.83l-147.78,36.85-147.78-36.84c-8.75-2.18-17.85,1.87-22.09,9.83l-62.63,117.62c-37.51,70.44-10.26,159.41,66.2,190.38l-28.84,115.67-57.17-14.25c-10.52-2.62-21.18,3.78-23.81,14.31-2.62,10.52,3.78,21.19,14.3,23.81l152.45,38.01c10.54,2.63,21.19-3.8,23.81-14.31,2.62-10.52-3.78-21.19-14.3-23.81l-57.17-14.25,28.84-115.69c52.52,5.48,101.44-19.59,128.19-64.96,26.67,45.23,75.49,70.45,128.19,64.96l28.84,115.69-57.17,14.25c-10.52,2.62-16.93,13.28-14.3,23.81,2.62,10.52,13.28,16.93,23.81,14.31l152.45-38.01c10.52-2.62,16.93-13.28,14.3-23.81Zm-414.2-147.75c-58.94-14.69-84.42-73.89-65.85-126.07l183.17,45.67c-8.02,54.31-57.9,95.23-117.33,80.4Zm118.44-120.61h0l-166.37-41.48,43.6-81.88,122.77,30.61v92.75Zm39.29,0l.06-92.77,122.69-30.59,43.6,81.88-166.36,41.48Zm118.42,120.61c-58.99,14.71-109.23-25.65-117.33-80.4l183.17-45.67c18.43,51.76-6.48,111.27-65.85,126.07Z" fill="#fff" stroke-width="0"/>
</svg>