<?xml version="1.0" encoding="UTF-8"?>
<svg id="a" data-name="2" xmlns="http://www.w3.org/2000/svg" viewBox="0 0 637.66 673.26">
  <path d="m599.52,164.54l-217.93-79.26v23.83l210.25,76.51c2.42.86,4.48,2.06,6.39,3.62.94.69,1.89,1.55,2.67,2.41,5.78,6.14,7.94,15.29,4.93,23.84l-149.98,411.94c-4.4,12.08-17.79,18.3-29.87,13.89l-265.07-96.45c-3.97-1.46-7.34-3.88-9.84-6.99h-25.38c4.32,12.6,14.07,23.14,27.54,28.07l265.07,96.52c16.84,6.13,34.8,1.82,46.98-9.67,1.73-1.56,3.28-3.28,4.74-5.18,2.85-3.71,5.27-7.86,6.91-12.52l149.98-411.94c8.63-23.74-3.63-49.99-27.37-58.63Z" fill="#fff" stroke="#fff" stroke-miterlimit="10" stroke-width="16"/>
  <path d="m385.4,417.52c9.07,5.09,20.12,6.57,29.7,3.02,14.94-5.7,22.19-18.83,23.74-33.84.69-7.09.17-14.59-1.46-21.94-.44-2.25-1.04-4.57-1.73-6.82-1.99-6.22-4.41-12.7-7.08-19.26-4.58-11.65-9.84-23.4-13.9-33.93-3.02-8.03-5.35-15.29-6.22-21.24-.09-.77-.17-1.56-.26-2.25,0-.17,0-.34-.08-.52-.09-.78-.35-1.04-.52-1.13-.26-.16-.61-.09-1.21.52-.09.1-.17.17-.34.34-.35.35-.69.69-1.12,1.04-4.49,4.23-11.13,8.46-18.9,12.78-1.47.86-2.93,1.64-4.41,2.42v118.46c1.04.7,2.07,1.39,3.19,2.07.18.08.44.17.61.26Z" fill="#fff" stroke="#fff" stroke-miterlimit="10" stroke-width="16"/>
  <path d="m533.18,276.44c.01-6.35,1.45-13.39,3.58-20.48,2.94,5.88,10.7,9.08,16.8,6.78,9.13-3.43,10.67-14.32,7.75-23.63-3.17-10.14-9.83-22.29-10.36-28.99l-.24-.64-.59.34c-4.71,4.8-17.61,9.83-26.58,15.56-8.21,5.25-14.03,14.59-9.24,23.07,3.2,5.69,11.19,8.22,17.22,5.6-2.92,6.81-6.34,13.13-10.43,18l12.09,4.4Z" fill="#fff" stroke="#fff" stroke-miterlimit="10" stroke-width="16"/>
  <path d="m381.58,492.11v-68.56s.02.02.02.02v-8.38s-.01-.01-.02-.02v-125.97s.02.01.02.02v-9.41s-.01.01-.01.01V53.75c-.02-25.27-20.47-45.74-45.75-45.75H53.75c-25.28,0-45.75,20.48-45.75,45.75v438.36c0,25.26,20.47,45.74,45.75,45.75h282.08c25.28,0,45.73-20.47,45.75-45.75Zm-351.13,0V53.75c.03-12.87,10.44-23.27,23.3-23.3h282.08c12.87.03,23.27,10.44,23.3,23.3v438.36c-.03,12.86-10.44,23.27-23.3,23.29H53.75c-12.87-.02-23.27-10.42-23.3-23.29Z" fill="#fff" stroke="#fff" stroke-miterlimit="10" stroke-width="16"/>
  <path d="m233.63,247.26c-2.24,0-4.42.18-6.56.54,5.21-6.82,8.31-15.33,8.31-24.57,0-22.37-18.21-40.58-40.59-40.58s-40.59,18.22-40.59,40.58c0,9.24,3.1,17.75,8.31,24.57-2.14-.35-4.34-.54-6.56-.54-22.4,0-40.59,18.22-40.59,40.58s18.2,40.6,40.59,40.6c12.51,0,23.71-5.7,31.15-14.63-1.26,17.85-4.04,34.88-9.32,49.38h34.01c-5.26-14.5-8.05-31.53-9.33-49.38,7.45,8.93,18.65,14.63,31.16,14.63,22.38,0,40.58-18.22,40.58-40.6s-18.2-40.58-40.58-40.58Z" fill="#fff" stroke="#fff" stroke-miterlimit="10" stroke-width="16"/>
  <path d="m317.09,443.93c-.96,0-1.89.08-2.8.22,2.23-2.93,3.58-6.59,3.58-10.57,0-9.63-7.84-17.48-17.47-17.48s-17.49,7.85-17.49,17.48c0,3.98,1.35,7.64,3.57,10.57-.91-.14-1.86-.22-2.82-.22-9.64,0-17.47,7.84-17.47,17.46s7.83,17.48,17.47,17.48c5.38,0,10.2-2.46,13.41-6.29-.54,7.69-1.75,15-4.01,21.27h14.65c-2.28-6.26-3.47-13.58-4.03-21.27,3.22,3.83,8.04,6.29,13.41,6.29,9.64,0,17.47-7.83,17.47-17.48s-7.83-17.46-17.47-17.46Z" fill="#fff" stroke="#fff" stroke-miterlimit="10" stroke-width="16"/>
  <path d="m123.4,107.79c0-9.63-7.84-17.46-17.49-17.46-.94,0-1.89.08-2.82.21,2.24-2.92,3.58-6.59,3.58-10.57,0-9.62-7.83-17.47-17.45-17.47s-17.49,7.85-17.49,17.47c0,3.98,1.33,7.65,3.58,10.57-.91-.13-1.86-.21-2.82-.21-9.63,0-17.47,7.83-17.47,17.46s7.84,17.48,17.47,17.48c5.38,0,10.2-2.47,13.41-6.3-.56,7.69-1.75,15-4.02,21.27h14.64c-2.26-6.26-3.46-13.58-4.02-21.27,3.2,3.83,8.03,6.3,13.41,6.3,9.65,0,17.49-7.84,17.49-17.48Z" fill="#fff" stroke="#fff" stroke-miterlimit="10" stroke-width="16"/>
</svg>