<?xml version="1.0" encoding="UTF-8"?>
<svg id="Capa_1" xmlns="http://www.w3.org/2000/svg" viewBox="0 0 335.96 97.4">
  <defs>
    <style>
      .cls-1 {
        fill: #ffffff;
      }

      .cls-2 {
        fill: #ffffff;
      }
    </style>
  </defs>
  <path class="cls-1" d="M74.6,48.7l1.3.4c2.9.89,5.17,3.16,6.06,6.06l.4,1.29.4-1.29c.89-2.9,3.16-5.17,6.06-6.06l1.3-.4-1.3-.4c-2.9-.89-5.17-3.16-6.06-6.06l-.4-1.29-.4,1.29c-.89,2.9-3.16,5.17-6.06,6.06l-1.3.4Z"/>
  <path class="cls-2" d="M260.6,0v8.73c-.82-.94-1.61-1.79-2.33-2.52-3.57-3.62-8.8-4.93-13.64-3.44l-82.3,25.46v.02c-10.51,2.49-12.89,20.61-9.75,37.52.99,5.31,2.48,10.35,4.34,14.78l-22.58-32.26L168.17,0h-23.27l-21.64,32.33L101.74,0h-23.4l33.82,48.3-34.36,49.11h23.4l22.05-33.01,22.05,33.01h33.52l-.07-.07,79.49-.69c5.64-.06,10.71-3.69,12.62-9.03,11.92-33.3,4.56-56.48-3.85-70.17h20.79v79.95h20.83V17.45h27.33V0h-75.35ZM174.15,88.78h-.51c-1.13-.2-3.22-1.66-5.59-5.34-3.07-4.76-5.63-11.77-7.02-19.23-3.2-17.23.91-27.18,3.36-27.64.05,0,.11-.02.18-.02,1.03,0,3.29,1.37,5.87,5.37,3.07,4.76,5.63,11.77,7.02,19.23,3.18,17.11-.85,27.04-3.31,27.62ZM216.24,36.21c1.86,4.53,4.71,9.17,9.02,13.31.75.72.28,1.98-.75,2.04l-14.41.81c-1.87.11-3.41-1.45-3.29-3.32v-.04c.3-4.63,1.55-9.05,3.63-13.05,1.26-2.42,4.77-2.29,5.81.23ZM191.67,85.91c2.73-30.67-5.58-45.37-10.12-50.96-1.14-1.4-.47-3.51,1.26-4.05l25.95-8.03c1.29-.4,2.32,1.08,1.53,2.17-20.61,28.52-3.12,53.13,7.63,60.8,1.1.78.54,2.51-.81,2.52l-22.84.37c-1.54.02-2.73-1.3-2.6-2.83ZM215.78,73.79c-.28-.29-.55-.59-.82-.9-2.76-3.13-4.84-6.68-6.23-10.48-.75-2.05.63-4.25,2.81-4.38l15.3-.87c.91-.05,1.54.9,1.14,1.72l-6.97,14.11c-.99,2.01-3.68,2.41-5.22.78ZM237.78,84.05c-3.7-.22-7.36-1.07-10.82-2.52-1.72-.73-2.43-2.72-1.61-4.39l7.67-15.52c.47-.96,1.88-.86,2.21.16l5.86,18.08c.7,2.17-1.02,4.33-3.31,4.2ZM255.93,79.77c-1.51.87-3.06,1.6-4.65,2.21-1.7.65-3.59-.31-4.15-2.04l-5.72-17.65c-.34-1.05.81-1.97,1.76-1.4,5.69,3.42,10.87,7.68,14.09,14.73.69,1.51.11,3.32-1.33,4.15ZM266.14,73.07c-.39,1.74-2.8,2.02-3.52.38-5.2-11.74-14.97-16.87-23.88-21.51l-1.18-.61c-15.37-8.03-18.52-21.88-18.94-30.02-.05-.86.49-1.64,1.32-1.9l27.24-8.43c1.77-.55,3.68-.06,4.99,1.26,18.88,19.15,17.72,44.25,13.99,60.82Z"/>
  <g>
    <path class="cls-2" d="M32.22,53.48c0,8.39-6.25,13.42-17.77,13.42-4.96,0-10.05-.92-13.48-2.39v-12.25c4.1,2.27,9.01,3.49,12.8,3.49s5.94-.67,5.94-2.27c0-1.84-2.88-2.7-7.6-4.53-7.11-2.76-12.13-5.7-12.13-14.15s6.8-13.85,17.28-13.85c4.41,0,8.94.8,12.01,2.08v11.76c-2.7-1.78-6.8-2.82-10.91-2.82-3.61,0-5.82,1.04-5.82,2.82,0,1.59,2.7,2.7,7.17,4.53,7.1,2.94,12.5,5.94,12.5,14.15Z"/>
    <path class="cls-2" d="M58.01,65.98l-6.49-13.72h-3.61v13.72h-12.5V21.87h16.6c10.84,0,18.5,5.09,18.5,15.5,0,6.25-2.94,10.48-7.78,12.8l8.58,15.8h-13.29ZM47.9,32.65v9.43h4.78c2.57,0,4.9-1.1,4.9-4.72s-2.33-4.72-4.9-4.72h-4.78Z"/>
  </g>
</svg>