<?xml version="1.0" encoding="utf-8"?>
<!-- Generator: Adobe Illustrator 28.0.0, SVG Export Plug-In . SVG Version: 6.00 Build 0)  -->
<svg version="1.1" id="Capa_1" xmlns="http://www.w3.org/2000/svg" xmlns:xlink="http://www.w3.org/1999/xlink" x="0px" y="0px"
	 viewBox="0 0 258.2 131" style="enable-background:new 0 0 258.2 131;" xml:space="preserve">
<style type="text/css">
	.st0{fill:#1D1D1D;}
</style>
<path class="st0" d="M106.1,30.7c5.4,2,8.2,3.2,8.2,5.6c0,1.8-2,2.8-5.7,3.1c-1.1,0.1-2.3,0.1-3.5-0.1c-3.6-0.3-7.3-1.5-10.5-3.2
	l0,0v10.9c1.3,0.5,2.8,1,4.4,1.4c2.7,0.6,5.9,1,9,1c11.1,0,17.2-4.9,17.2-13.1s-5.1-11-12.6-14c-5.2-2.1-7.8-3.5-7.8-5.6
	c0-2.2,2.6-3.6,6.7-3.6s8.3,1.1,10.9,2.8V5.2l0,0c-3-1.2-7.4-2.1-11.8-2.1c-10.1,0-16.8,5.3-16.8,13.5S98.6,27.8,106.1,30.7
	L106.1,30.7z"/>
<path class="st0" d="M139.2,29h4.8l4.4,9l9.7-2.8l-4.4-8.1l0,0c4.7-2.1,7.9-6.2,7.9-12.5C161.6,5,154.5,0,144.1,0h-15.7v43.2
	l10.7-3.1L139.2,29L139.2,29z M139.2,9.2h5.5c3.3,0,5.9,1.7,5.9,5.5s-2.5,5.5-5.8,5.5h-5.5V9.2z"/>
<path class="st0" d="M159.5,26.2l1.3,0.4c2.9,0.9,5.2,3.2,6.1,6.1l0.4,1.3l0.4-1.3c0.9-2.9,3.2-5.2,6.1-6.1l1.3-0.4l-1.3-0.4
	c-2.9-0.9-5.2-3.2-6.1-6.1l-0.4-1.3l-0.4,1.3c-0.9,2.9-3.2,5.2-6.1,6.1L159.5,26.2z"/>
<path class="st0" d="M182.8,33.6v8.7c-0.8-0.9-1.6-1.8-2.3-2.5c-3.6-3.6-8.8-4.9-13.6-3.4L84.5,61.8v0C74,64.3,71.6,82.5,74.8,99.4
	c1,5.3,2.5,10.3,4.3,14.8L56.5,81.9l33.8-48.3H67.1L45.5,65.9L23.9,33.6H0.5l33.8,48.3L0,131h23.4l22-33l22.1,33H101l-0.1-0.1
	l79.5-0.7c5.6-0.1,10.7-3.7,12.6-9c11.9-33.3,4.6-56.5-3.9-70.2H210V131h20.8V51h27.3V33.6H182.8z M96.3,122.4h-0.5
	c-1.1-0.2-3.2-1.7-5.6-5.3c-3.1-4.8-5.6-11.8-7-19.2c-3.2-17.2,0.9-27.2,3.4-27.6c0.1,0,0.1,0,0.2,0c1,0,3.3,1.4,5.9,5.4
	c3.1,4.8,5.6,11.8,7,19.2C102.8,111.9,98.8,121.8,96.3,122.4L96.3,122.4z M138.4,69.8c1.9,4.5,4.7,9.2,9,13.3c0.8,0.7,0.3,2-0.8,2
	L132.3,86c-1.9,0.1-3.4-1.4-3.3-3.3v0c0.3-4.6,1.6-9.1,3.6-13.1C133.9,67.1,137.4,67.3,138.4,69.8L138.4,69.8z M113.9,119.5
	c2.7-30.7-5.6-45.4-10.1-51c-1.1-1.4-0.5-3.5,1.3-4.1l26-8c1.3-0.4,2.3,1.1,1.5,2.2c-20.6,28.5-3.1,53.1,7.6,60.8
	c1.1,0.8,0.5,2.5-0.8,2.5l-22.8,0.4C114.9,122.3,113.7,121,113.9,119.5L113.9,119.5z M138,107.4c-0.3-0.3-0.6-0.6-0.8-0.9
	c-2.8-3.1-4.8-6.7-6.2-10.5c-0.8-2.1,0.6-4.2,2.8-4.4l15.3-0.9c0.9-0.1,1.5,0.9,1.1,1.7l-7,14.1C142.2,108.6,139.5,109,138,107.4
	L138,107.4z M160,117.7c-3.7-0.2-7.4-1.1-10.8-2.5c-1.7-0.7-2.4-2.7-1.6-4.4l7.7-15.5c0.5-1,1.9-0.9,2.2,0.2l5.9,18.1
	C164,115.6,162.3,117.8,160,117.7L160,117.7z M178.1,113.4c-1.5,0.9-3.1,1.6-4.6,2.2c-1.7,0.7-3.6-0.3-4.1-2l-5.7-17.7
	c-0.3-1.1,0.8-2,1.8-1.4c5.7,3.4,10.9,7.7,14.1,14.7C180.2,110.7,179.6,112.5,178.1,113.4z M188.4,106.7c-0.4,1.7-2.8,2-3.5,0.4
	c-5.2-11.7-15-16.9-23.9-21.5l-1.2-0.6c-15.4-8-18.5-21.9-18.9-30c-0.1-0.9,0.5-1.6,1.3-1.9l27.2-8.4c1.8-0.5,3.7-0.1,5,1.3
	C193.3,65,192.1,90.1,188.4,106.7L188.4,106.7z"/>
</svg>
